<svg width="22" height="22" viewBox="0 0 22 22" fill="none" xmlns="http://www.w3.org/2000/svg">
<path d="M13.5187 8.74515L13.2585 15.5142M9.65732 15.5142L9.39709 8.74515M16.8942 6.33085C17.1514 6.36996 17.4071 6.41133 17.6629 6.45571M16.8942 6.33085L16.0909 16.7725C16.0581 17.1976 15.8661 17.5947 15.5532 17.8843C15.2403 18.1739 14.8296 18.3348 14.4032 18.3346H8.5126C8.08623 18.3348 7.67551 18.1739 7.3626 17.8843C7.04969 17.5947 6.85764 17.1976 6.82485 16.7725L6.02159 6.33085M16.8942 6.33085C16.0261 6.19962 15.1536 6.10003 14.2783 6.03226M6.02159 6.33085C5.76437 6.36921 5.50865 6.41058 5.25293 6.45495M6.02159 6.33085C6.88964 6.19962 7.76217 6.10003 8.63745 6.03226M14.2783 6.03226V5.34332C14.2783 4.45583 13.5939 3.71574 12.7064 3.68792C11.8743 3.66132 11.0415 3.66132 10.2094 3.68792C9.32188 3.71574 8.63745 4.45658 8.63745 5.34332V6.03226M14.2783 6.03226C12.4008 5.88716 10.5149 5.88716 8.63745 6.03226" stroke="white" stroke-width="1.375" stroke-linecap="round" stroke-linejoin="round"/>
</svg>
