<svg width="90" height="32" viewBox="0 0 90 32" fill="none" xmlns="http://www.w3.org/2000/svg">
<path d="M4.93379 14.1204C5.62061 13.7401 6.46651 13.549 7.46957 13.549C8.10109 13.549 8.68604 13.6887 9.22541 13.9671C9.7638 14.2455 10.21 14.6268 10.5631 15.1099C10.9162 15.593 11.1209 16.1411 11.1762 16.7542V16.9491H2.99171C3.07999 16.5262 3.20609 16.1391 3.37294 15.7928C3.72508 15.0594 4.24601 14.5017 4.93379 14.1204ZM14.1029 18.0085C14.1214 16.987 13.9681 16.0441 13.6431 15.1797C13.3182 14.3154 12.8535 13.5675 12.2491 12.9359C11.6457 12.3044 10.9347 11.8068 10.1179 11.4449C9.3001 11.0821 8.41733 10.9017 7.46957 10.9017C6.39182 10.9017 5.3936 11.0918 4.47397 11.4731C3.55337 11.8533 2.76375 12.3927 2.10409 13.0892C1.44444 13.7857 0.929331 14.6084 0.557793 15.5561C0.185284 16.5029 0 17.5535 0 18.705C0 20.1543 0.329825 21.4367 0.989476 22.5513C1.64913 23.6659 2.56002 24.5439 3.7212 25.1851C4.88238 25.8263 6.21527 26.1464 7.72082 26.1464C8.40764 26.1464 9.10898 26.0494 9.8249 25.8544C10.5398 25.6594 11.2179 25.3946 11.8592 25.0599C12.5004 24.7253 13.0436 24.3353 13.4898 23.8891L12.0406 21.8548C11.3159 22.4863 10.6427 22.9229 10.0199 23.1644C9.39711 23.406 8.72387 23.5272 7.99923 23.5272C6.97677 23.5272 6.07655 23.3225 5.29564 22.9141C4.5157 22.5048 3.91133 21.9246 3.4845 21.1719C3.16146 20.6034 2.96066 19.9573 2.88209 19.2346H14.0748L14.1029 18.0085Z" fill="white"/>
<path d="M28.5124 25.868L22.8423 18.4557L28.0109 11.2354H24.6108L21.263 16.3991L17.308 11.2354H13.6848L19.3403 18.5284L13.713 25.868H17.1131L20.9837 20.6461L25.0007 25.868H28.5124Z" fill="white"/>
<path d="M40.3851 21.0739C39.9951 21.8179 39.4655 22.4029 38.7971 22.8307C38.1278 23.2575 37.3653 23.4709 36.5116 23.4709C35.6376 23.4709 34.8673 23.2575 34.198 22.8307C33.5286 22.4029 32.9999 21.8179 32.609 21.0739C32.219 20.3318 32.024 19.4859 32.024 18.5381C32.024 17.5904 32.219 16.7454 32.609 16.0014C32.9999 15.2593 33.5286 14.6782 34.198 14.2601C34.8673 13.842 35.6376 13.6325 36.5116 13.6325C37.3847 13.6325 38.1559 13.8468 38.8243 14.2737C39.4936 14.7015 40.0184 15.2816 40.3997 16.0159C40.7799 16.7503 40.971 17.5904 40.971 18.5381C40.971 19.4859 40.776 20.3318 40.3851 21.0739ZM42.8384 14.6365C42.2428 13.5025 41.4347 12.611 40.4132 11.96C39.3908 11.3101 38.2209 10.9851 36.9016 10.9851C36.1022 10.9851 35.3271 11.1481 34.5744 11.4731C33.8216 11.7981 33.1852 12.2161 32.6652 12.7264C32.4683 12.9195 32.3015 13.1164 32.1637 13.3153V11.2354H29.2651V31.9998H32.1637V23.954C32.2578 24.0627 32.3587 24.1713 32.4703 24.28C33.0271 24.8184 33.7052 25.2598 34.5045 25.6032C35.3039 25.9466 36.1304 26.1192 36.985 26.1192C38.2674 26.1192 39.4189 25.7894 40.4414 25.1298C41.4629 24.4701 42.2671 23.5689 42.852 22.4262C43.437 21.2834 43.7299 19.9874 43.7299 18.5381C43.7299 17.0704 43.4331 15.7695 42.8384 14.6365Z" fill="white"/>
<path d="M52.3142 23.5272C53.1872 23.5272 53.9682 23.309 54.655 22.8714C55.3428 22.4359 55.8821 21.8403 56.2721 21.0884C56.662 20.3357 56.8473 19.4859 56.8299 18.5381C56.8473 17.5719 56.662 16.7124 56.2721 15.9597C55.8821 15.2079 55.3428 14.6181 54.655 14.1903C53.9682 13.7624 53.1872 13.549 52.3142 13.549C51.4411 13.549 50.6563 13.7673 49.9588 14.2038C49.2623 14.6413 48.7191 15.235 48.3291 15.9878C47.9382 16.7406 47.7529 17.5904 47.7713 18.5381C47.7529 19.4859 47.9382 20.3357 48.3291 21.0884C48.7191 21.8403 49.2623 22.4359 49.9588 22.8714C50.6563 23.309 51.4411 23.5272 52.3142 23.5272ZM52.3142 26.1464C50.8833 26.1464 49.6057 25.8176 48.4824 25.1569C47.3581 24.4983 46.4705 23.5961 45.8205 22.4534C45.1696 21.3116 44.8446 20.0058 44.8446 18.5381C44.8446 17.0704 45.1696 15.7647 45.8205 14.6219C46.4705 13.4792 47.3581 12.578 48.4824 11.9183C49.6057 11.2597 50.8833 10.9289 52.3142 10.9289C53.7266 10.9289 54.9945 11.2597 56.1188 11.9183C57.2431 12.578 58.1298 13.4792 58.7807 14.6219C59.4307 15.7647 59.7556 17.0704 59.7556 18.5381C59.7556 20.0058 59.4307 21.3116 58.7807 22.4534C58.1298 23.5961 57.2431 24.4983 56.1188 25.1569C54.9945 25.8176 53.7266 26.1464 52.3142 26.1464Z" fill="white"/>
<path d="M73.3288 13.5772C72.9573 12.6847 72.3995 12.0212 71.6564 11.5837C70.9133 11.1481 69.984 10.9289 68.8694 10.9289C68.0895 10.9289 67.327 11.1015 66.5839 11.4449C65.8408 11.7893 65.1996 12.2346 64.6612 12.7827C64.4342 13.0136 64.2402 13.2541 64.0753 13.5034V11.2354H61.2048V25.868C61.4464 25.868 61.6879 25.868 61.9295 25.868C62.171 25.868 62.4126 25.868 62.6541 25.868H64.0753V17.0054C64.0753 16.5223 64.1733 16.0712 64.3683 15.6531C64.5632 15.235 64.8329 14.8683 65.1763 14.5521C65.5197 14.2368 65.9242 13.9904 66.3889 13.8139C66.8536 13.6373 67.3648 13.549 67.9216 13.549C68.6094 13.5122 69.1856 13.6189 69.6503 13.8692C70.114 14.1204 70.4584 14.5201 70.6815 15.0682C70.9036 15.6163 71.0152 16.3079 71.0152 17.1441V25.868H73.8866V16.9491C73.8866 15.593 73.7004 14.4687 73.3288 13.5772Z" fill="white"/>
<path d="M86.386 21.0884C86.0048 21.8403 85.48 22.431 84.8116 22.8579C84.1422 23.2857 83.371 23.4991 82.498 23.4991C81.6433 23.4991 80.8857 23.2857 80.2261 22.8579C79.5664 22.431 79.0464 21.8403 78.6652 21.0884C78.2849 20.3357 78.0948 19.4762 78.0948 18.51C78.0948 17.5622 78.2849 16.7173 78.6652 15.9742C79.0464 15.2311 79.5664 14.6452 80.2261 14.2184C80.8857 13.7906 81.6433 13.5772 82.498 13.5772C83.371 13.5772 84.1422 13.7906 84.8116 14.2184C85.48 14.6452 86.0048 15.2311 86.386 15.9742C86.7663 16.7173 86.9574 17.5622 86.9574 18.51C86.9574 19.4762 86.7663 20.3357 86.386 21.0884ZM86.8458 11.2354V13.4695C86.55 12.9941 86.1852 12.5683 85.7448 12.1977C85.2714 11.798 84.7185 11.4867 84.087 11.2635C83.4545 11.0404 82.758 10.9289 81.9964 10.9289C80.714 10.9289 79.5577 11.2548 78.5265 11.9048C77.4953 12.5557 76.6775 13.4511 76.0732 14.5938C75.4698 15.7365 75.1681 17.0423 75.1681 18.51C75.1681 19.9593 75.4649 21.2601 76.0596 22.4126C76.6542 23.5641 77.4487 24.475 78.4431 25.1434C79.4364 25.8127 80.5375 26.1464 81.7452 26.1464C82.4514 26.1464 83.1246 26.0358 83.7659 25.8127C84.4071 25.5896 84.992 25.2927 85.5217 24.9202C86.0514 24.5487 86.4879 24.1258 86.8323 23.6524C86.8371 23.6456 86.841 23.6378 86.8458 23.631V25.868H89.7444V11.2354H86.8458Z" fill="white"/>
<path d="M48.2922 25.6575C44.9086 30.3672 39.9156 31.8262 33.9827 31.9708C41.3116 32.2754 45.8952 30.1926 49.1837 26.0921C48.8762 25.967 48.5794 25.8214 48.2922 25.6575Z" fill="#EA1B3D"/>
<path d="M58.2442 9.54263L57.085 -4.71664e-07L52.4393 8.0817L54.5124 7.31728C53.4918 12.4344 52.418 17.666 50.1722 22.3757C50.1955 22.3913 50.2178 22.4077 50.2411 22.4223C50.5748 22.6318 50.9279 22.7803 51.3043 22.8753C52.3889 20.8974 53.3269 18.6245 54.2039 16.0703C55.1351 13.3599 55.8947 10.6078 56.5999 7.84693L58.2442 9.54263Z" fill="#EA1B3D"/>
</svg>
