<svg width="24" height="24" viewBox="0 0 24 24" fill="none" xmlns="http://www.w3.org/2000/svg">
<path d="M24.0001 20C24.0001 22.2091 22.2093 24 20.0001 24H4.00012C1.79098 24 0.00012207 22.2091 0.00012207 20V4C0.00012207 1.79086 1.79098 0 4.00012 0H20.0001C22.2093 0 24.0001 1.79086 24.0001 4V20Z" fill="#EA1B3D"/>
<path d="M16.7088 15.9297L14.9112 1.13672L7.70928 13.666L10.7193 12.5549C10.4679 14.6346 10.0902 16.709 9.22626 18.5673C8.96666 19.0468 8.66403 19.5517 8.30928 19.9619C6.91901 21.5554 4.8661 22.1305 2.75391 22.4121C5.72044 22.8491 8.6865 22.4279 10.8355 20.0709C12.5375 18.2135 13.6118 15.9746 14.5364 13.6899L16.7088 15.9297Z" fill="white"/>
</svg>
