<svg width="188" height="40" viewBox="0 0 188 40" fill="none" xmlns="http://www.w3.org/2000/svg">
<path d="M121.757 31.4714C122.088 31.4714 122.382 31.3866 122.641 31.217C122.9 31.0489 123.105 30.819 123.256 30.5288C123.407 30.2371 123.482 29.9052 123.482 29.5316C123.482 29.1652 123.408 28.8361 123.26 28.5444C123.114 28.2542 122.911 28.0257 122.652 27.8605C122.394 27.6952 122.095 27.6133 121.757 27.6133C121.42 27.6133 121.122 27.6952 120.863 27.8605C120.605 28.0257 120.399 28.2542 120.249 28.5444C120.098 28.8361 120.023 29.1652 120.023 29.5316C120.023 29.9052 120.098 30.2371 120.249 30.5288C120.399 30.819 120.605 31.0489 120.863 31.217C121.122 31.3866 121.42 31.4714 121.757 31.4714ZM121.941 32.4844C121.697 32.4844 121.454 32.4441 121.213 32.3651C120.973 32.2861 120.753 32.1812 120.556 32.0476C120.358 31.9154 120.192 31.7674 120.06 31.6064C119.927 31.4441 119.839 31.2803 119.796 31.115L120.076 30.9642V32.3436H118.967V24.4019H120.076V28.0114L119.904 27.9151C119.94 27.7498 120.019 27.5904 120.141 27.4352C120.263 27.2814 120.419 27.1406 120.609 27.0142C120.8 26.8891 121.007 26.7886 121.23 26.7124C121.453 26.6377 121.678 26.6003 121.908 26.6003C122.418 26.6003 122.871 26.7253 123.266 26.9768C123.661 27.2283 123.974 27.5745 124.204 28.0171C124.434 28.4582 124.549 28.964 124.549 29.5316C124.549 30.0991 124.436 30.6049 124.209 31.0504C123.983 31.4958 123.673 31.8464 123.277 32.1007C122.882 32.3565 122.437 32.4844 121.941 32.4844Z" fill="white"/>
<path d="M126.489 34.8535L127.631 32.2125L127.641 33.0962L124.818 26.7164H126.111L127.878 30.8762C127.914 30.9481 127.957 31.0587 128.008 31.2053C128.058 31.3533 128.101 31.4984 128.137 31.6421L127.857 31.7067C127.914 31.5559 127.97 31.405 128.024 31.2541C128.078 31.1032 128.13 30.9524 128.18 30.8015L129.657 26.7164H130.972L128.644 32.3749L127.684 34.8535H126.489Z" fill="white"/>
<path d="M134.818 32.375V31.2973H136.037V25.909H134.818V24.8314H138.418V25.909H137.201V31.2973H138.418V32.375H134.818Z" fill="white"/>
<path d="M139.97 32.375V26.7165H141.08V27.8804L140.886 28.0097C140.958 27.7583 141.098 27.5269 141.306 27.3143C141.514 27.1031 141.763 26.9306 142.05 26.797C142.336 26.6648 142.632 26.5987 142.934 26.5987C143.365 26.5987 143.724 26.6835 144.012 26.8516C144.299 27.0197 144.515 27.2769 144.658 27.6218C144.802 27.9666 144.874 28.402 144.874 28.9265V32.375H143.763V29.0012C143.763 28.6779 143.72 28.4106 143.634 28.198C143.548 27.9868 143.414 27.833 143.236 27.7353C143.056 27.6376 142.832 27.5974 142.568 27.6117C142.352 27.6117 142.154 27.6462 141.974 27.7138C141.795 27.7827 141.638 27.8775 141.506 27.9997C141.372 28.1218 141.269 28.2641 141.193 28.425C141.118 28.5874 141.08 28.7612 141.08 28.948V32.375H140.53C140.437 32.375 140.343 32.375 140.25 32.375C140.157 32.375 140.063 32.375 139.97 32.375Z" fill="white"/>
<path d="M146.996 32.375V26.0814C146.996 25.7581 147.068 25.4708 147.212 25.2193C147.355 24.9679 147.552 24.7696 147.804 24.6259C148.055 24.4822 148.347 24.4103 148.677 24.4103C148.907 24.4103 149.123 24.4535 149.324 24.5397C149.525 24.6259 149.686 24.7408 149.808 24.8845L149.432 25.7366C149.338 25.6504 149.236 25.58 149.124 25.5254C149.013 25.4722 148.907 25.4449 148.807 25.4449C148.656 25.4449 148.528 25.4679 148.424 25.5153C148.319 25.5627 148.242 25.6331 148.192 25.7309C148.141 25.8271 148.117 25.9449 148.117 26.0814V32.375H147.556C147.463 32.375 147.37 32.375 147.276 32.375C147.183 32.375 147.089 32.375 146.996 32.375ZM146.091 27.8373V26.8143H149.453V27.8373H146.091Z" fill="white"/>
<path d="M152.945 31.4714C153.282 31.4714 153.584 31.3866 153.85 31.217C154.116 31.0489 154.324 30.819 154.475 30.5288C154.626 30.2371 154.698 29.908 154.691 29.5416C154.698 29.168 154.626 28.8361 154.475 28.5444C154.324 28.2542 154.116 28.0257 153.85 27.8605C153.584 27.6952 153.282 27.6133 152.945 27.6133C152.607 27.6133 152.304 27.6981 152.034 27.8662C151.765 28.0358 151.555 28.2657 151.404 28.5559C151.254 28.8462 151.18 29.1752 151.189 29.5416C151.18 29.908 151.254 30.2371 151.404 30.5288C151.555 30.819 151.765 31.0489 152.034 31.217C152.304 31.3866 152.607 31.4714 152.945 31.4714ZM152.945 32.4844C152.392 32.4844 151.897 32.3565 151.463 32.1007C151.028 31.8464 150.686 31.4987 150.435 31.0561C150.182 30.6136 150.057 30.1092 150.057 29.5416C150.057 28.9741 150.182 28.4697 150.435 28.0272C150.686 27.586 151.028 27.2369 151.463 26.9826C151.897 26.7282 152.392 26.6003 152.945 26.6003C153.491 26.6003 153.981 26.7282 154.416 26.9826C154.85 27.2369 155.194 27.586 155.445 28.0272C155.696 28.4697 155.823 28.9741 155.823 29.5416C155.823 30.1092 155.696 30.6136 155.445 31.0561C155.194 31.4987 154.85 31.8464 154.416 32.1007C153.981 32.3565 153.491 32.4844 152.945 32.4844Z" fill="white"/>
<path d="M158.472 31.2542H160.498C160.793 31.2542 161.043 31.2111 161.249 31.1249C161.453 31.0387 161.611 30.9108 161.723 30.7427C161.833 30.5732 161.889 30.3705 161.889 30.1335C161.889 29.9107 161.83 29.7196 161.711 29.5616C161.593 29.4035 161.425 29.2828 161.21 29.2009C160.994 29.119 160.74 29.0773 160.445 29.0773H158.472V31.2542ZM158.472 27.9566H160.391C160.606 27.9566 160.799 27.9135 160.968 27.8273C161.136 27.741 161.27 27.6218 161.366 27.4709C161.464 27.32 161.511 27.1476 161.511 26.9536C161.511 26.6303 161.404 26.3832 161.188 26.2108C160.973 26.0383 160.664 25.9521 160.261 25.9521H158.472V27.9566ZM157.309 32.375V24.8314H160.455C160.937 24.8314 161.343 24.9032 161.674 25.0469C162.004 25.1906 162.254 25.4032 162.422 25.6877C162.592 25.9722 162.675 26.3185 162.675 26.728C162.675 27.1376 162.563 27.4853 162.336 27.7727C162.111 28.06 161.796 28.2583 161.394 28.3661V28.1506C161.731 28.2224 162.026 28.3489 162.277 28.5328C162.529 28.7153 162.724 28.9437 162.865 29.2167C163.004 29.4897 163.075 29.803 163.075 30.155C163.075 30.5142 163.019 30.8318 162.908 31.1077C162.796 31.385 162.631 31.6163 162.412 31.8031C162.193 31.9899 161.928 32.1322 161.619 32.2284C161.31 32.3262 160.958 32.375 160.563 32.375H157.309Z" fill="white"/>
<path d="M166.998 32.4844C166.416 32.4844 165.9 32.3608 165.452 32.1122C165.002 31.8636 164.65 31.5245 164.395 31.0935C164.14 30.6624 164.013 30.1667 164.013 29.6063C164.013 29.1609 164.084 28.7557 164.229 28.3893C164.372 28.0228 164.571 27.7039 164.826 27.4352C165.081 27.165 165.387 26.9581 165.742 26.8101C166.098 26.6636 166.483 26.5888 166.9 26.5888C167.268 26.5888 167.608 26.6592 167.924 26.7986C168.24 26.9394 168.515 27.132 168.749 27.3762C168.982 27.6205 169.162 27.9093 169.288 28.2427C169.413 28.5775 169.472 28.9425 169.466 29.3376L169.455 29.8118H164.832L164.584 28.9281H168.496L168.334 29.1106V28.8519C168.312 28.6148 168.233 28.4036 168.097 28.2168C167.96 28.03 167.788 27.882 167.58 27.7743C167.371 27.6665 167.144 27.6133 166.9 27.6133C166.513 27.6133 166.186 27.6866 165.92 27.8346C165.654 27.9812 165.453 28.1967 165.316 28.4812C165.18 28.7643 165.112 29.1149 165.112 29.5316C165.112 29.9267 165.194 30.2687 165.36 30.5604C165.525 30.8521 165.759 31.0762 166.061 31.2343C166.361 31.3923 166.71 31.4714 167.105 31.4714C167.386 31.4714 167.646 31.424 167.887 31.3306C168.127 31.2372 168.388 31.069 168.669 30.8248L169.229 31.6108C169.055 31.7832 168.845 31.9341 168.598 32.0634C168.35 32.1927 168.088 32.2947 167.811 32.3709C167.535 32.4456 167.263 32.4844 166.998 32.4844Z" fill="white"/>
<path d="M173.14 31.4599C173.478 31.4599 173.775 31.378 174.034 31.2127C174.293 31.0475 174.497 30.819 174.643 30.5288C174.791 30.2371 174.864 29.9052 174.864 29.5316C174.864 29.1652 174.791 28.8376 174.643 28.5502C174.497 28.2628 174.293 28.0372 174.034 27.872C173.775 27.7067 173.478 27.6234 173.14 27.6234C172.81 27.6234 172.517 27.7067 172.262 27.872C172.006 28.0372 171.805 28.2628 171.659 28.5502C171.511 28.8376 171.437 29.1652 171.437 29.5316C171.437 29.9052 171.511 30.2371 171.659 30.5288C171.805 30.819 172.006 31.0475 172.262 31.2127C172.517 31.378 172.81 31.4599 173.14 31.4599ZM172.848 32.4844C172.381 32.4844 171.956 32.3551 171.572 32.0964C171.187 31.8378 170.88 31.4857 170.65 31.0403C170.42 30.5949 170.305 30.092 170.305 29.5316C170.305 28.964 170.423 28.4582 170.656 28.0171C170.89 27.5745 171.206 27.2283 171.604 26.9768C172.004 26.7253 172.45 26.6003 172.946 26.6003C173.241 26.6003 173.509 26.6434 173.754 26.7297C173.998 26.8159 174.212 26.9366 174.396 27.0903C174.578 27.2455 174.729 27.4222 174.849 27.6234C174.966 27.8246 175.04 28.0401 175.068 28.27L174.821 28.1838V26.7182H175.942V32.3766H174.821V31.0288L175.08 30.9541C175.037 31.1481 174.949 31.3363 174.816 31.5188C174.683 31.7027 174.514 31.8665 174.31 32.0102C174.104 32.1539 173.879 32.2688 173.63 32.3551C173.383 32.4413 173.121 32.4844 172.848 32.4844Z" fill="white"/>
<path d="M177.494 32.375V26.7165H178.603V27.8804L178.409 28.0097C178.481 27.7583 178.622 27.5269 178.83 27.3143C179.039 27.1031 179.286 26.9306 179.573 26.797C179.861 26.6648 180.155 26.5987 180.457 26.5987C180.888 26.5987 181.247 26.6835 181.535 26.8516C181.822 27.0197 182.038 27.2769 182.181 27.6218C182.325 27.9666 182.397 28.402 182.397 28.9265V32.375H181.288V29.0012C181.288 28.6779 181.244 28.4106 181.158 28.198C181.072 27.9868 180.938 27.833 180.759 27.7353C180.579 27.6376 180.356 27.5974 180.091 27.6117C179.875 27.6117 179.678 27.6462 179.499 27.7138C179.319 27.7827 179.162 27.8775 179.03 27.9997C178.897 28.1218 178.793 28.2641 178.717 28.425C178.642 28.5874 178.603 28.7612 178.603 28.948V32.375H178.055C177.961 32.375 177.868 32.375 177.774 32.375C177.681 32.375 177.588 32.375 177.494 32.375Z" fill="white"/>
<path d="M185.792 32.4844C185.318 32.4844 184.89 32.401 184.509 32.2358C184.128 32.0706 183.812 31.8263 183.561 31.503L184.315 30.8564C184.53 31.1078 184.766 31.2889 185.022 31.401C185.276 31.513 185.565 31.5676 185.888 31.5676C186.018 31.5676 186.138 31.5518 186.25 31.5188C186.361 31.4872 186.459 31.4383 186.541 31.3737C186.623 31.309 186.686 31.2328 186.729 31.1423C186.772 31.0532 186.794 30.9541 186.794 30.8463C186.794 30.6595 186.726 30.5087 186.589 30.3937C186.518 30.3434 186.404 30.2874 186.25 30.2256C186.095 30.1652 185.895 30.102 185.651 30.0374C185.235 29.9296 184.894 29.8075 184.628 29.671C184.362 29.5345 184.157 29.3807 184.013 29.2083C183.905 29.0718 183.826 28.9223 183.776 28.76C183.726 28.599 183.701 28.4209 183.701 28.2269C183.701 27.9898 183.753 27.7728 183.858 27.5745C183.961 27.3777 184.105 27.2053 184.289 27.0573C184.472 26.9107 184.687 26.7972 184.936 26.7182C185.183 26.6391 185.447 26.6003 185.727 26.6003C185.993 26.6003 186.256 26.6363 186.519 26.7081C186.782 26.7799 187.023 26.8834 187.246 27.0199C187.469 27.1564 187.656 27.3188 187.807 27.5056L187.171 28.2053C187.035 28.0688 186.885 27.9481 186.725 27.8447C186.562 27.7412 186.398 27.6593 186.233 27.6018C186.068 27.5444 185.917 27.5156 185.781 27.5156C185.63 27.5156 185.493 27.53 185.371 27.5587C185.249 27.5875 185.147 27.6306 185.065 27.6881C184.982 27.7455 184.918 27.8174 184.875 27.9036C184.832 27.9898 184.811 28.0875 184.811 28.1953C184.818 28.2887 184.842 28.3763 184.881 28.4582C184.92 28.5416 184.976 28.612 185.048 28.6694C185.127 28.7269 185.246 28.7873 185.404 28.8519C185.562 28.9166 185.763 28.9784 186.008 29.0359C186.367 29.1292 186.663 29.2313 186.897 29.3434C187.13 29.454 187.315 29.5819 187.452 29.7256C187.595 29.8621 187.696 30.0201 187.753 30.1997C187.811 30.3793 187.84 30.5805 187.84 30.8032C187.84 31.1265 187.748 31.4153 187.565 31.6697C187.381 31.9254 187.135 32.1252 186.827 32.2688C186.518 32.4125 186.173 32.4844 185.792 32.4844Z" fill="white"/>
<path d="M6.16713 17.6509C7.02638 17.1739 8.08393 16.9368 9.33689 16.9368C10.1272 16.9368 10.8586 17.1106 11.5325 17.4584C12.2064 17.8075 12.7639 18.2831 13.205 18.8866C13.6461 19.4915 13.9019 20.1755 13.9708 20.9428V21.1871H3.74022C3.85086 20.6569 4.00748 20.1741 4.21583 19.7401C4.65695 18.8234 5.30787 18.1265 6.16713 17.6509ZM17.6291 22.5104C17.6521 21.2331 17.461 20.0548 17.0544 18.9743C16.6478 17.8937 16.0673 16.9598 15.3129 16.1695C14.5571 15.3806 13.6691 14.7585 12.6475 14.3058C11.6244 13.8532 10.5223 13.6262 9.33689 13.6262C7.99053 13.6262 6.74188 13.8647 5.59237 14.3403C4.44287 14.8174 3.45573 15.4898 2.63096 16.3606C1.80619 17.2328 1.16244 18.2601 0.696889 19.4441C0.232775 20.6296 0 21.9414 0 23.3812C0 25.1931 0.412408 26.7952 1.23718 28.189C2.06195 29.5828 3.19996 30.6806 4.65121 31.4809C6.10247 32.2827 7.76925 32.6836 9.65157 32.6836C10.5108 32.6836 11.3873 32.5615 12.2811 32.3172C13.1748 32.0744 14.024 31.7424 14.8244 31.3243C15.6261 30.9062 16.3058 30.4191 16.8633 29.8615L15.0514 27.3183C14.1461 28.1085 13.3027 28.6546 12.5253 28.9563C11.7466 29.2581 10.906 29.4089 9.99929 29.4089C8.7219 29.4089 7.59539 29.1532 6.61975 28.6416C5.6441 28.1315 4.88974 27.4059 4.35522 26.4648C3.95146 25.7535 3.70143 24.946 3.60229 24.0436H17.5947L17.6291 22.5104Z" fill="white"/>
<path d="M35.6403 32.334L28.5536 23.0689L35.0139 14.0439H30.7635L26.5794 20.4984L21.6365 14.0439H17.106L24.1754 23.1595L17.1419 32.334H21.3922L26.2302 25.8062L31.2507 32.334H35.6403Z" fill="white"/>
<path d="M50.482 26.3424C49.9949 27.2721 49.3325 28.0035 48.4962 28.538C47.6599 29.0725 46.7073 29.3383 45.6397 29.3383C44.5476 29.3383 43.5849 29.0725 42.7487 28.538C41.9124 28.0035 41.25 27.2721 40.7629 26.3424C40.2743 25.4142 40.0315 24.3566 40.0315 23.1726C40.0315 21.9872 40.2743 20.9311 40.7629 20.0014C41.25 19.0732 41.9124 18.3461 42.7487 17.8245C43.5849 17.3015 44.5476 17.04 45.6397 17.04C46.7317 17.04 47.6959 17.3073 48.5321 17.8418C49.3684 18.3763 50.0236 19.1019 50.5007 20.0187C50.9763 20.9368 51.2148 21.9872 51.2148 23.1726C51.2148 24.3566 50.9705 25.4142 50.482 26.3424ZM53.5483 18.2944C52.8054 16.8776 51.7938 15.7626 50.5179 14.9508C49.2391 14.1375 47.7763 13.7309 46.1282 13.7309C45.1281 13.7309 44.1597 13.9349 43.2185 14.3401C42.2774 14.7467 41.4828 15.2698 40.8319 15.9078C40.5862 16.1491 40.3778 16.3949 40.2054 16.6434V14.0441H36.5815V40H40.2054V29.9418C40.3232 30.0783 40.4482 30.2148 40.5876 30.3484C41.2845 31.0238 42.1322 31.5741 43.1309 32.0037C44.1295 32.4334 45.1641 32.6489 46.2317 32.6489C47.8352 32.6489 49.275 32.2365 50.5524 31.4117C51.8298 30.587 52.8341 29.4604 53.5655 28.0322C54.2969 26.6039 54.6633 24.9831 54.6633 23.1726C54.6633 21.3377 54.2912 19.7112 53.5483 18.2944Z" fill="white"/>
<path d="M65.394 29.4089C66.4846 29.4089 67.4603 29.1359 68.3195 28.5899C69.1788 28.0439 69.8527 27.301 70.3412 26.3599C70.8283 25.4201 71.0611 24.3568 71.0381 23.1728C71.0611 21.9644 70.8283 20.8911 70.3412 19.9499C69.8527 19.0088 69.1788 18.2716 68.3195 17.7371C67.4603 17.204 66.4846 16.9368 65.394 16.9368C64.302 16.9368 63.3206 17.2098 62.4498 17.7544C61.5791 18.3004 60.8994 19.0447 60.4123 19.9844C59.9238 20.9256 59.691 21.9874 59.7154 23.1728C59.691 24.3568 59.9238 25.4201 60.4123 26.3599C60.8994 27.301 61.5791 28.0439 62.4498 28.5899C63.3206 29.1359 64.302 29.4089 65.394 29.4089ZM65.394 32.6836C63.6051 32.6836 62.0087 32.2712 60.6034 31.4464C59.1982 30.6231 58.0889 29.4951 57.2756 28.0669C56.4623 26.6386 56.0571 25.0077 56.0571 23.1728C56.0571 21.3379 56.4623 19.7056 57.2756 18.2774C58.0889 16.8491 59.1982 15.7226 60.6034 14.8978C62.0087 14.0745 63.6051 13.6607 65.394 13.6607C67.1585 13.6607 68.7434 14.0745 70.1486 14.8978C71.5539 15.7226 72.6632 16.8491 73.4765 18.2774C74.2898 19.7056 74.6964 21.3379 74.6964 23.1728C74.6964 25.0077 74.2898 26.6386 73.4765 28.0669C72.6632 29.4951 71.5539 30.6231 70.1486 31.4464C68.7434 32.2712 67.1585 32.6836 65.394 32.6836Z" fill="white"/>
<path d="M91.6617 16.9708C91.1976 15.8558 90.5007 15.0253 89.5724 14.4792C88.6428 13.9347 87.4818 13.6602 86.088 13.6602C85.1124 13.6602 84.1597 13.8758 83.2315 14.3054C82.3018 14.735 81.5 15.2925 80.8276 15.9779C80.5431 16.2667 80.3002 16.567 80.0948 16.8788V14.0439H76.5068V32.334C76.8086 32.334 77.1104 32.334 77.4135 32.334C77.7138 32.334 78.017 32.334 78.3188 32.334H80.0948V21.2556C80.0948 20.6521 80.2169 20.0888 80.4612 19.5658C80.7054 19.0442 81.0416 18.5859 81.4713 18.1893C81.9009 17.7956 82.4067 17.4881 82.9872 17.2668C83.5677 17.0455 84.2071 16.9363 84.904 16.9363C85.7618 16.8889 86.4831 17.0225 87.0636 17.3358C87.6441 17.6505 88.0738 18.1491 88.3525 18.8345C88.6313 19.5199 88.7707 20.3848 88.7707 21.4295V32.334H92.3586V21.1866C92.3586 19.4911 92.1272 18.0858 91.6617 16.9708Z" fill="white"/>
<path d="M107.984 26.3599C107.508 27.301 106.851 28.0381 106.015 28.5727C105.179 29.1072 104.216 29.3745 103.124 29.3745C102.055 29.3745 101.108 29.1072 100.285 28.5727C99.4599 28.0381 98.809 27.301 98.3334 26.3599C97.8578 25.4201 97.6192 24.3453 97.6192 23.1369C97.6192 21.9529 97.8578 20.8968 98.3334 19.9672C98.809 19.0389 99.4599 18.3076 100.285 17.773C101.108 17.2385 102.055 16.9713 103.124 16.9713C104.216 16.9713 105.179 17.2385 106.015 17.773C106.851 18.3076 107.508 19.0389 107.984 19.9672C108.459 20.8968 108.698 21.9529 108.698 23.1369C108.698 24.3453 108.459 25.4201 107.984 26.3599ZM108.558 14.0443V16.8362C108.189 16.2428 107.733 15.7111 107.183 15.247C106.59 14.747 105.899 14.3576 105.11 14.0788C104.319 13.8001 103.449 13.6607 102.496 13.6607C100.894 13.6607 99.4484 14.0673 98.1595 14.8806C96.8706 15.6939 95.8476 16.8146 95.0932 18.2429C94.3388 19.6712 93.9609 21.3035 93.9609 23.1369C93.9609 24.9488 94.3316 26.5754 95.076 28.0151C95.8188 29.4549 96.8117 30.5929 98.0546 31.4292C99.2975 32.2655 100.673 32.6836 102.183 32.6836C103.065 32.6836 103.908 32.5442 104.709 32.2655C105.511 31.9867 106.242 31.616 106.904 31.1504C107.565 30.6863 108.111 30.1575 108.541 29.5656C108.548 29.5569 108.553 29.5483 108.558 29.5382V32.3344H112.182V14.0443H108.558Z" fill="white"/>
<path d="M60.3663 32.0718C56.1361 37.9587 49.8957 39.7836 42.4785 39.9632C51.6401 40.3454 57.369 37.7418 61.4799 32.615C61.0962 32.4598 60.7255 32.2773 60.3663 32.0718Z" fill="#EA1B3D"/>
<path d="M72.807 11.9273L71.3573 -0.000261115L65.5493 10.1025L68.1415 9.14551C66.867 15.5425 65.5235 22.0818 62.7158 27.9687C62.7446 27.9874 62.7733 28.0089 62.802 28.0276C63.2202 28.2891 63.6613 28.4759 64.1312 28.5938C65.4876 26.1209 66.6601 23.2801 67.755 20.0874C68.9203 16.6992 69.8686 13.2579 70.7509 9.80792L72.807 11.9273Z" fill="#EA1B3D"/>
</svg>
