<svg width="50" height="50" viewBox="0 0 50 50" fill="none" xmlns="http://www.w3.org/2000/svg">
<path d="M45.4255 20.9172H43.7474V20.8307H24.9974V29.1641H36.7714C35.0536 34.0151 30.438 37.4974 24.9974 37.4974C18.0943 37.4974 12.4974 31.9005 12.4974 24.9974C12.4974 18.0943 18.0943 12.4974 24.9974 12.4974C28.1839 12.4974 31.0828 13.6995 33.2901 15.663L39.1828 9.77031C35.462 6.3026 30.4849 4.16406 24.9974 4.16406C13.4922 4.16406 4.16406 13.4922 4.16406 24.9974C4.16406 36.5026 13.4922 45.8307 24.9974 45.8307C36.5026 45.8307 45.8307 36.5026 45.8307 24.9974C45.8307 23.6005 45.687 22.237 45.4255 20.9172Z" fill="#FFC107"/>
<path d="M6.57031 15.3005L13.4151 20.3203C15.2672 15.7349 19.7526 12.4974 25.0016 12.4974C28.188 12.4974 31.087 13.6995 33.2943 15.663L39.187 9.77031C35.4661 6.3026 30.4891 4.16406 25.0016 4.16406C16.9995 4.16406 10.0599 8.68177 6.57031 15.3005Z" fill="#FF3D00"/>
<path d="M25 45.8292C30.3812 45.8292 35.2708 43.7698 38.9677 40.4208L32.5198 34.9646C30.4281 36.549 27.8281 37.4958 25 37.4958C19.5812 37.4958 14.9802 34.0406 13.2469 29.2188L6.45312 34.4531C9.90104 41.2 16.9031 45.8292 25 45.8292Z" fill="#4CAF50"/>
<path d="M45.4281 20.9224H43.75V20.8359H25V29.1693H36.774C35.949 31.4995 34.45 33.5089 32.5167 34.9724L32.5198 34.9703L38.9677 40.4266C38.5115 40.8411 45.8333 35.4193 45.8333 25.0026C45.8333 23.6057 45.6896 22.2422 45.4281 20.9224Z" fill="#1976D2"/>
</svg>
