<svg width="20" height="20" viewBox="0 0 20 20" fill="none" xmlns="http://www.w3.org/2000/svg">
<path d="M18.7501 9.99183C18.7507 10.2145 18.6918 10.4334 18.5794 10.6257C18.4671 10.8179 18.3054 10.9767 18.1111 11.0856L4.99232 18.5864C4.80406 18.6931 4.59153 18.7496 4.37513 18.7504C4.17575 18.7494 3.97952 18.7006 3.80281 18.6082C3.62611 18.5159 3.47407 18.3826 3.35937 18.2195C3.24468 18.0564 3.17066 17.8682 3.1435 17.6707C3.11635 17.4732 3.13683 17.272 3.20326 17.084L5.31263 10.8379C5.33325 10.7769 5.37224 10.7237 5.42427 10.6856C5.4763 10.6476 5.53882 10.6265 5.60326 10.6254H11.2501C11.3358 10.6256 11.4206 10.6082 11.4993 10.5742C11.5779 10.5402 11.6488 10.4905 11.7074 10.428C11.766 10.3655 11.8111 10.2916 11.84 10.2109C11.8688 10.1303 11.8808 10.0445 11.8751 9.95902C11.861 9.7983 11.7866 9.64887 11.6669 9.54066C11.5473 9.43244 11.3911 9.37342 11.2298 9.37542H5.60482C5.53944 9.37543 5.4757 9.35493 5.42259 9.31681C5.36947 9.27869 5.32965 9.22487 5.30873 9.16292L3.19935 2.91761C3.11539 2.67823 3.10626 2.41897 3.17315 2.17427C3.24005 1.92958 3.37981 1.71102 3.57388 1.54765C3.76794 1.38428 4.00712 1.28381 4.25964 1.25961C4.51216 1.23541 4.76607 1.28861 4.98763 1.41214L18.1126 8.90355C18.3058 9.01215 18.4667 9.17016 18.5787 9.36139C18.6907 9.55262 18.7499 9.7702 18.7501 9.99183Z" fill="white"/>
</svg>
