<svg width="32" height="32" viewBox="0 0 32 32" fill="none" xmlns="http://www.w3.org/2000/svg">
<rect width="32" height="32" rx="16" fill="white" fill-opacity="0.12"/>
<g clip-path="url(#clip0_2838_63254)">
<path d="M24.75 15.9918C24.7506 16.2145 24.6916 16.4334 24.5793 16.6257C24.4669 16.8179 24.3052 16.9767 24.1109 17.0856L10.9922 24.5864C10.8039 24.6931 10.5914 24.7496 10.375 24.7504C10.1756 24.7494 9.97939 24.7006 9.80269 24.6082C9.62599 24.5159 9.47394 24.3826 9.35925 24.2195C9.24455 24.0564 9.17054 23.8682 9.14338 23.6707C9.11622 23.4732 9.13671 23.272 9.20314 23.084L11.3125 16.8379C11.3331 16.7769 11.3721 16.7237 11.4241 16.6856C11.4762 16.6476 11.5387 16.6265 11.6031 16.6254H17.25C17.3357 16.6256 17.4205 16.6082 17.4992 16.5742C17.5778 16.5402 17.6486 16.4905 17.7073 16.428C17.7659 16.3655 17.811 16.2916 17.8399 16.2109C17.8687 16.1303 17.8807 16.0445 17.875 15.959C17.8608 15.7983 17.7865 15.6489 17.6668 15.5407C17.5472 15.4324 17.391 15.3734 17.2297 15.3754H11.6047C11.5393 15.3754 11.4756 15.3549 11.4225 15.3168C11.3693 15.2787 11.3295 15.2249 11.3086 15.1629L9.19923 8.91761C9.11527 8.67823 9.10613 8.41897 9.17303 8.17427C9.23993 7.92958 9.37969 7.71102 9.57376 7.54765C9.76782 7.38428 10.007 7.28381 10.2595 7.25961C10.512 7.23541 10.7659 7.28861 10.9875 7.41214L24.1125 14.9035C24.3057 15.0121 24.4666 15.1702 24.5786 15.3614C24.6906 15.5526 24.7498 15.7702 24.75 15.9918Z" fill="white"/>
</g>
<defs>
<clipPath id="clip0_2838_63254">
<rect width="20" height="20" fill="white" transform="translate(6 6)"/>
</clipPath>
</defs>
</svg>
