<svg width="24" height="24" viewBox="0 0 24 24" fill="none" xmlns="http://www.w3.org/2000/svg">
<g clip-path="url(#clip0_4674_10822)">
<path d="M11.25 15L20.25 6" stroke="white" stroke-width="1.5" stroke-linecap="round" stroke-linejoin="round"/>
<path d="M5.29125 14.9999C5.26378 14.7508 5.25001 14.5005 5.25 14.2499C5.25091 13.1787 5.50655 12.123 5.99583 11.17C6.48511 10.2171 7.19399 9.39412 8.06399 8.7691C8.93398 8.14408 9.94014 7.73491 10.9994 7.57535C12.0587 7.4158 13.1407 7.51044 14.1562 7.85147" stroke="white" stroke-width="1.5" stroke-linecap="round" stroke-linejoin="round"/>
<path d="M20.6835 9.81039C21.2849 10.9903 21.6405 12.28 21.7288 13.6014C21.8171 14.9229 21.6362 16.2484 21.1972 17.4979C21.146 17.6452 21.0501 17.7728 20.9229 17.863C20.7957 17.9533 20.6435 18.0016 20.4875 18.0013H3.51223C3.35599 18.0007 3.20381 17.9515 3.07669 17.8607C2.94957 17.7698 2.85378 17.6417 2.80254 17.4941C2.42757 16.4279 2.24073 15.3046 2.25035 14.1745C2.2916 8.81289 6.72504 4.45258 12.0941 4.50039C13.6074 4.51253 15.0969 4.87786 16.4441 5.56726" stroke="white" stroke-width="1.5" stroke-linecap="round" stroke-linejoin="round"/>
</g>
<defs>
<clipPath id="clip0_4674_10822">
<rect width="24" height="24" fill="white"/>
</clipPath>
</defs>
</svg>
