<svg width="57" height="56" viewBox="0 0 57 56" fill="none" xmlns="http://www.w3.org/2000/svg">
<path fill-rule="evenodd" clip-rule="evenodd" d="M33.7501 5.83333C33.7501 5.67862 33.6886 5.53025 33.5792 5.42085C33.4698 5.31146 33.3215 5.25 33.1667 5.25H16.8334C15.1316 5.25 13.4995 5.92604 12.2961 7.1294C11.0928 8.33276 10.4167 9.96486 10.4167 11.6667V44.3333C10.4167 46.0351 11.0928 47.6672 12.2961 48.8706C13.4995 50.074 15.1316 50.75 16.8334 50.75H40.1667C41.8686 50.75 43.5007 50.074 44.704 48.8706C45.9074 47.6672 46.5834 46.0351 46.5834 44.3333V21.343C46.5834 21.1883 46.522 21.0399 46.4126 20.9305C46.3032 20.8211 46.1548 20.7597 46.0001 20.7597H35.5001C35.036 20.7597 34.5908 20.5753 34.2626 20.2471C33.9345 19.9189 33.7501 19.4738 33.7501 19.0097V5.83333ZM33.2391 31.1173C33.6017 31.4076 34.0648 31.5419 34.5265 31.4907C34.9881 31.4395 35.4105 31.207 35.7007 30.8443C35.991 30.4817 36.1253 30.0186 36.0741 29.557C36.0229 29.0953 35.7904 28.6729 35.4277 28.3827L29.6084 23.7277C29.2968 23.4733 28.907 23.334 28.5047 23.3333H28.4861C28.0911 23.3363 27.7087 23.4728 27.4011 23.7207L21.5747 28.3827C21.2121 28.6726 20.9795 29.0947 20.9281 29.5561C20.8767 30.0176 21.0107 30.4805 21.3006 30.8432C21.5905 31.2058 22.0126 31.4384 22.474 31.4898C22.9355 31.5413 23.3984 31.4073 23.7611 31.1173L26.7501 28.7233V36.75C26.7501 36.9798 26.7953 37.2074 26.8833 37.4197C26.9712 37.632 27.1001 37.8249 27.2626 37.9874C27.4251 38.1499 27.6181 38.2788 27.8304 38.3668C28.0427 38.4547 28.2703 38.5 28.5001 38.5C28.7299 38.5 28.9575 38.4547 29.1698 38.3668C29.3821 38.2788 29.575 38.1499 29.7375 37.9874C29.9 37.8249 30.0289 37.632 30.1169 37.4197C30.2048 37.2074 30.2501 36.9798 30.2501 36.75V28.7233L33.2391 31.1173Z" fill="#676775"/>
<path d="M37.25 6.58939C37.25 6.16006 37.7003 5.88706 38.034 6.1554C38.3171 6.38406 38.5683 6.65006 38.7877 6.9534L45.818 16.7464C45.9767 16.9704 45.804 17.2597 45.5287 17.2597H37.8333C37.6786 17.2597 37.5303 17.1983 37.4209 17.0889C37.3115 16.9795 37.25 16.8311 37.25 16.6764V6.58939Z" fill="#676775"/>
</svg>
