<svg width="26" height="32" viewBox="0 0 26 32" fill="none" xmlns="http://www.w3.org/2000/svg">
<path fill-rule="evenodd" clip-rule="evenodd" d="M16.4103 0.410256C16.4103 0.30145 16.367 0.197099 16.2901 0.120161C16.2132 0.0432234 16.1088 0 16 0H4.51282C3.31595 0 2.16809 0.475457 1.32177 1.32177C0.475456 2.16809 0 3.31595 0 4.51282V27.4872C0 28.6841 0.475456 29.8319 1.32177 30.6782C2.16809 31.5245 3.31595 32 4.51282 32H20.9231C22.1199 32 23.2678 31.5245 24.1141 30.6782C24.9604 29.8319 25.4359 28.6841 25.4359 27.4872V11.3182C25.4359 11.2093 25.3927 11.105 25.3157 11.0281C25.2388 10.9511 25.1344 10.9079 25.0256 10.9079H17.641C17.3146 10.9079 17.0016 10.7782 16.7707 10.5474C16.5399 10.3166 16.4103 10.0035 16.4103 9.67713V0.410256ZM16.0509 18.1924C16.3059 18.3965 16.6316 18.491 16.9563 18.455C17.281 18.419 17.578 18.2555 17.7822 18.0004C17.9863 17.7454 18.0807 17.4197 18.0447 17.095C18.0087 16.7703 17.8452 16.4732 17.5902 16.2691L13.4974 12.9953C13.2783 12.8164 13.0042 12.7184 12.7212 12.7179H12.7081C12.4303 12.72 12.1613 12.816 11.945 12.9904L7.84738 16.2691C7.59234 16.473 7.42874 16.7699 7.39258 17.0944C7.35642 17.4189 7.45066 17.7445 7.65456 17.9996C7.85847 18.2546 8.15533 18.4182 8.47986 18.4544C8.80438 18.4906 9.12998 18.3963 9.38502 18.1924L11.4872 16.5087V22.1538C11.4872 22.3155 11.519 22.4755 11.5809 22.6248C11.6427 22.7742 11.7334 22.9098 11.8477 23.0241C11.962 23.1384 12.0976 23.2291 12.247 23.2909C12.3963 23.3528 12.5563 23.3846 12.7179 23.3846C12.8796 23.3846 13.0396 23.3528 13.1889 23.2909C13.3383 23.2291 13.4739 23.1384 13.5882 23.0241C13.7025 22.9098 13.7932 22.7742 13.855 22.6248C13.9169 22.4755 13.9487 22.3155 13.9487 22.1538V16.5087L16.0509 18.1924Z" fill="#FFF5F7"/>
<path d="M18.873 0.942679C18.873 0.64073 19.1898 0.44873 19.4244 0.637448C19.6235 0.798269 19.8002 0.985346 19.9545 1.19868L24.8989 8.08606C25.0105 8.2436 24.889 8.44709 24.6954 8.44709H19.2833C19.1745 8.44709 19.0701 8.40387 18.9932 8.32693C18.9163 8.24999 18.873 8.14564 18.873 8.03683V0.942679Z" fill="#FFF5F7"/>
</svg>
