<svg width="16" height="16" viewBox="0 0 16 16" fill="none" xmlns="http://www.w3.org/2000/svg">
<path d="M12.0929 14.4125C11.5063 14.5858 10.8129 14.6659 9.99958 14.6659H5.99958C5.18625 14.6659 4.49292 14.5858 3.90625 14.4125C4.05292 12.6792 5.83292 11.3125 7.99958 11.3125C10.1663 11.3125 11.9463 12.6792 12.0929 14.4125Z" stroke="white" stroke-linecap="round" stroke-linejoin="round"/>
<path d="M9.9987 1.33203H5.9987C2.66536 1.33203 1.33203 2.66536 1.33203 5.9987V9.9987C1.33203 12.5187 2.09203 13.8987 3.90537 14.412C4.05203 12.6787 5.83203 11.312 7.9987 11.312C10.1654 11.312 11.9454 12.6787 12.092 14.412C13.9054 13.8987 14.6654 12.5187 14.6654 9.9987V5.9987C14.6654 2.66536 13.332 1.33203 9.9987 1.33203ZM7.9987 9.44535C6.6787 9.44535 5.61203 8.37204 5.61203 7.05204C5.61203 5.73204 6.6787 4.66536 7.9987 4.66536C9.3187 4.66536 10.3854 5.73204 10.3854 7.05204C10.3854 8.37204 9.3187 9.44535 7.9987 9.44535Z" stroke="white" stroke-linecap="round" stroke-linejoin="round"/>
<path d="M10.3866 7.05465C10.3866 8.37465 9.31995 9.44796 7.99995 9.44796C6.67995 9.44796 5.61328 8.37465 5.61328 7.05465C5.61328 5.73465 6.67995 4.66797 7.99995 4.66797C9.31995 4.66797 10.3866 5.73465 10.3866 7.05465Z" stroke="white" stroke-linecap="round" stroke-linejoin="round"/>
</svg>
