<svg width="16" height="16" viewBox="0 0 16 16" fill="none" xmlns="http://www.w3.org/2000/svg">
<path d="M1.33301 6.66661V9.33327C1.33301 10.6666 1.99967 11.3333 3.33301 11.3333H4.28634C4.53301 11.3333 4.77967 11.4066 4.99301 11.5333L6.93967 12.7533C8.61967 13.8066 9.99967 13.0399 9.99967 11.0599V4.93994C9.99967 2.95327 8.61967 2.19327 6.93967 3.24661L4.99301 4.46661C4.77967 4.59327 4.53301 4.66661 4.28634 4.66661H3.33301C1.99967 4.66661 1.33301 5.33327 1.33301 6.66661Z" stroke="white" stroke-width="1.5"/>
<path d="M12 5.33325C13.1867 6.91325 13.1867 9.08659 12 10.6666" stroke="white" stroke-width="1.5" stroke-linecap="round" stroke-linejoin="round"/>
<path d="M13.2197 3.66675C15.1464 6.23341 15.1464 9.76675 13.2197 12.3334" stroke="white" stroke-width="1.5" stroke-linecap="round" stroke-linejoin="round"/>
</svg>
