<svg width="24" height="24" viewBox="0 0 24 24" fill="none" xmlns="http://www.w3.org/2000/svg">
<path d="M14.2502 10.5012C14.2502 10.7001 14.1712 10.8909 14.0305 11.0315C13.8899 11.1722 13.6991 11.2512 13.5002 11.2512H11.2502V13.5012C11.2502 13.7001 11.1712 13.8909 11.0305 14.0315C10.8899 14.1722 10.6991 14.2512 10.5002 14.2512C10.3013 14.2512 10.1105 14.1722 9.96988 14.0315C9.82923 13.8909 9.75021 13.7001 9.75021 13.5012V11.2512H7.50021C7.3013 11.2512 7.11054 11.1722 6.96988 11.0315C6.82923 10.8909 6.75021 10.7001 6.75021 10.5012C6.75021 10.3023 6.82923 10.1115 6.96988 9.97086C7.11054 9.83021 7.3013 9.75119 7.50021 9.75119H9.75021V7.50119C9.75021 7.30228 9.82923 7.11151 9.96988 6.97086C10.1105 6.83021 10.3013 6.75119 10.5002 6.75119C10.6991 6.75119 10.8899 6.83021 11.0305 6.97086C11.1712 7.11151 11.2502 7.30228 11.2502 7.50119V9.75119H13.5002C13.6991 9.75119 13.8899 9.83021 14.0305 9.97086C14.1712 10.1115 14.2502 10.3023 14.2502 10.5012ZM21.5308 21.5318C21.4612 21.6016 21.3785 21.6569 21.2874 21.6946C21.1964 21.7324 21.0988 21.7518 21.0002 21.7518C20.9017 21.7518 20.8041 21.7324 20.713 21.6946C20.622 21.6569 20.5392 21.6016 20.4696 21.5318L15.7765 16.8378C14.1431 18.1983 12.048 18.8767 9.92715 18.7319C7.80629 18.5871 5.82289 17.6302 4.38956 16.0603C2.95623 14.4904 2.18333 12.4284 2.23163 10.3031C2.27993 8.17785 3.14571 6.15303 4.64888 4.64986C6.15205 3.14669 8.17687 2.2809 10.3021 2.2326C12.4274 2.1843 14.4894 2.95721 16.0593 4.39054C17.6293 5.82387 18.5861 7.80726 18.7309 9.92813C18.8757 12.049 18.1973 14.144 16.8368 15.7774L21.5308 20.4706C21.6006 20.5402 21.6559 20.6229 21.6936 20.714C21.7314 20.805 21.7508 20.9026 21.7508 21.0012C21.7508 21.0998 21.7314 21.1973 21.6936 21.2884C21.6559 21.3794 21.6006 21.4622 21.5308 21.5318ZM10.5002 17.2512C11.8352 17.2512 13.1403 16.8553 14.2503 16.1136C15.3603 15.3719 16.2255 14.3177 16.7364 13.0843C17.2473 11.8509 17.381 10.4937 17.1205 9.18433C16.8601 7.87496 16.2172 6.67222 15.2732 5.72822C14.3292 4.78422 13.1264 4.14134 11.8171 3.88089C10.5077 3.62044 9.1505 3.75411 7.9171 4.265C6.6837 4.7759 5.62949 5.64106 4.88779 6.75109C4.14609 7.86112 3.75021 9.16617 3.75021 10.5012C3.7522 12.2908 4.464 14.0065 5.72944 15.272C6.99488 16.5374 8.71061 17.2492 10.5002 17.2512Z" fill="white"/>
</svg>
